<svg xmlns="http://www.w3.org/2000/svg" viewBox="0 0 630 630" width="1024" height="1024">
	<style>
		tspan { white-space:pre }
		.shp0 { fill: #1d2329 } 
		.shp1 { fill: #63b0c4 } 
	</style>
	<g id="Background">
		<path id="Path 0" class="shp0" d="M0 315L0 630L630 630L630 0L0 0L0 315Z" />
		<path id="Path 1" fill-rule="evenodd" class="shp1" d="M287.5 62.09C288.05 62.06 291.43 63.55 295 65.42C298.57 67.28 305.18 70.98 309.68 73.65C314.18 76.32 321.33 81.65 325.56 85.5C329.8 89.35 333.64 93.17 334.1 94C334.65 94.99 333.63 98.23 331.13 103.5C329.04 107.9 325.57 114.33 323.42 117.79C321.26 121.25 315.53 130.25 310.67 137.79C305.81 145.33 301.09 152.07 300.17 152.77C299.25 153.46 296.14 154.03 293.25 154.02C290.36 154.01 287.98 154.34 287.97 154.75C287.95 155.16 291.21 156.92 295.22 158.65C299.22 160.38 305.2 162.69 308.5 163.78C311.8 164.86 319.41 168.17 325.4 171.13C331.85 174.31 337.46 177.83 339.15 179.75C341.04 181.9 342 184.1 341.99 186.25C341.99 188.04 341.34 192.2 340.56 195.5C339.78 198.8 338.66 203.75 338.08 206.5C337.5 209.25 336.01 212.8 334.76 214.4C333.52 215.99 330.02 218.53 327 220.03C323.09 221.98 318.75 223.08 312 223.83C305.41 224.57 300.2 225.87 295 228.07C289 230.61 286.45 231.17 282.26 230.87C277.4 230.53 276.66 230.12 272.26 225.3C269.64 222.44 263 216.02 257.5 211.05C252 206.07 247.13 202.34 246.67 202.75C246.21 203.16 246.32 206.43 246.91 210C247.66 214.49 247.67 217.58 246.96 220C246.4 221.93 244.96 225.07 243.76 227C242.57 228.93 240 232.65 238.05 235.29C235.6 238.59 233.33 240.45 230.73 241.29C228.65 241.95 226.96 242.84 226.98 243.25C226.99 243.66 229.36 244.68 232.25 245.51C235.14 246.34 238.18 247 239 246.98C239.82 246.96 245.9 249.59 252.5 252.83C259.1 256.06 267.37 259.56 270.88 260.6C274.38 261.65 278.39 263.63 279.77 265C281.16 266.38 285.9 272.9 290.3 279.5C294.7 286.1 299.78 293.75 301.59 296.5C303.41 299.25 306 302.63 307.36 304C308.71 305.38 310.65 307.9 311.66 309.6C312.67 311.31 314.98 314.46 316.78 316.6C318.59 318.75 324.26 326.8 329.39 334.5C334.51 342.2 340.91 351.5 343.6 355.16C346.3 358.82 350.86 366.14 353.75 371.41C358.51 380.1 358.88 381.21 357.67 383.25C356.93 384.49 355.02 386.56 353.42 387.86C351.81 389.15 346.9 392.77 342.5 395.89C338.1 399.02 332.35 402.46 329.72 403.54C327.09 404.62 324.95 405.84 324.97 406.25C324.98 406.66 325.34 407.2 325.75 407.43C326.16 407.67 331.15 408.01 336.84 408.18C342.52 408.36 347.56 408.95 348.03 409.5C348.49 410.05 348.96 412.3 349.06 414.5C349.15 416.7 349.85 420.52 350.61 423C351.37 425.48 352.67 432.23 353.49 438C354.32 443.77 355.45 455.48 355.99 464C356.54 472.52 357.44 481.64 357.99 484.25C358.55 486.86 359.45 489.23 360 489.5C360.66 489.83 361.01 477.91 361.02 454.75C361.04 422.47 361.18 419.4 362.77 418.28C363.72 417.61 366.75 415.95 369.5 414.59C372.25 413.23 375.51 410.97 379 407L376.34 405.25C374.87 404.29 372.02 401.93 369.99 400C367.22 397.37 365.59 394.38 363.43 388C361.85 383.32 359.98 378.94 359.28 378.25C358.58 377.56 358.21 376.89 358.46 376.75C358.71 376.61 358.29 374.48 357.54 372C356.78 369.52 353.83 361.88 350.98 355C348.12 348.13 344.82 340.06 343.65 337.07C342.22 333.47 337.81 327.25 330.5 318.54C324.45 311.33 318.45 304.32 317.16 302.97C315.88 301.61 311.06 295.55 306.45 289.5C300.36 281.51 298.06 277.68 297.98 272.5L305.24 273.33C309.23 273.78 315.65 274.81 319.5 275.61C323.35 276.41 330.1 277.94 334.5 279C338.9 280.06 344.52 281.64 347 282.52C349.48 283.39 354.54 284.76 358.25 285.56C361.96 286.35 367.36 288.19 370.25 289.64C373.14 291.09 377.52 293.89 380 295.86C382.48 297.83 387.65 302.18 391.5 305.54C395.35 308.9 399.18 312.03 400 312.51C401.33 313.29 401.33 313.19 400 311.65C399.18 310.69 398.84 309.93 399.25 309.96C399.66 309.98 397.25 306.96 393.88 303.25C390.51 299.54 387.02 295.48 386.13 294.24C384.58 292.09 384.65 291.77 387.5 287.85C389.15 285.57 392.04 282.09 393.91 280.11C395.79 278.12 400.52 272.33 404.41 267.23C408.31 262.12 413.2 255.6 415.28 252.73C417.35 249.85 422.3 243.94 426.28 239.6C430.25 235.25 437.24 227.15 441.82 221.6C446.39 216.04 452.13 209.36 454.57 206.75C457.54 203.56 459.57 202.16 460.75 202.5C461.71 202.77 464.75 205.38 467.5 208.3C470.25 211.22 476.1 217.82 480.5 222.97C484.9 228.12 489.51 233.95 490.74 235.92C491.98 237.89 493 240.85 493.02 242.5C493.04 244.51 491.64 247.36 488.77 251.14C486.42 254.25 478.99 262.91 472.25 270.39C465.51 277.88 460 284.23 460 284.5C460 284.77 460.79 284.84 461.75 284.63C462.71 284.43 464.51 283.76 465.75 283.13C467.57 282.22 468.24 282.31 469.25 283.61C470.25 284.9 470.24 287.05 469.2 294.36C468.42 299.82 466.46 307.12 464.33 312.5C461.05 320.79 460.86 321.82 461.95 325.5C462.81 328.42 462.85 330.85 462.08 334.5C461.5 337.25 459.89 344.9 458.51 351.5C457.12 358.1 454.53 368.25 452.74 374.06C450.96 379.86 448.32 386.39 446.89 388.56C445.45 390.72 442.19 394.75 439.65 397.5C437.1 400.25 433.77 404.91 432.26 407.87C430.74 410.82 427.35 415.77 424.73 418.87C422.11 421.96 419.3 425.96 418.48 427.75C417.43 430.05 416.71 437.51 416.02 453.25C415.48 465.49 415.01 490.13 414.98 508C414.94 532.32 414.57 542.14 413.5 547C412.71 550.58 412.07 555.52 412.08 558C412.09 560.99 411.52 563 410.39 564C408.92 565.3 397.87 565.55 246.5 566.3L233 560L233.03 546.25C233.05 538.69 233.47 529.58 233.96 526C234.46 522.42 236.27 512.98 238 505C239.72 497.02 241.73 485.32 242.45 479C243.17 472.68 244.52 462.1 245.44 455.5C246.37 448.9 247.83 439.45 248.68 434.5C249.53 429.55 250.45 423.7 250.71 421.5C250.97 419.3 250.72 415.7 250.16 413.5C249.59 411.3 246.22 404.77 242.67 399C239.12 393.23 234.57 386.02 232.55 383C230.54 379.98 226.2 373.68 222.91 369C219.62 364.32 216.23 358.93 215.38 357C214.52 355.07 213.53 351.5 213.16 349.04C212.54 344.88 212.24 344.52 208.5 343.47C206.3 342.86 203.38 341.57 202 340.62C200.63 339.67 197.3 335.43 194.62 331.19C191.94 326.96 187.3 319 184.31 313.5C181.33 308 178.12 302.6 177.19 301.5C176.26 300.4 174.38 298.79 173 297.92C171.47 296.95 169.92 294.48 169 291.55C167.82 287.77 166.5 286.05 162.75 283.38C159.72 281.23 155.88 276.83 152.15 271.25C148.93 266.44 145.33 260.59 144.15 258.25C142.97 255.91 142.01 253.21 142.03 252.25C142.05 251.29 144.39 246.45 147.24 241.5C150.09 236.55 153.91 230.7 155.73 228.5C157.74 226.08 159.04 223.41 159.02 221.75C159.01 220.24 159.6 217.54 160.34 215.75C161.07 213.96 164.43 208.68 167.8 204C171.17 199.32 176.86 191.45 180.45 186.5C184.04 181.55 186.99 177.16 186.99 176.75C187 176.34 189.48 172.06 192.51 167.25C195.55 162.44 199.94 155.87 202.26 152.65C204.59 149.43 208.33 144.48 210.56 141.65C212.8 138.82 216.52 135.15 218.83 133.5C223.02 130.52 223.07 130.51 228.77 131.84C231.92 132.58 238.32 134.93 243 137.05C247.68 139.18 251.95 140.65 252.5 140.31C253.07 139.96 252.64 139.08 251.5 138.27C250.4 137.49 247.47 135.69 245 134.27C242.53 132.84 239.93 130.97 239.23 130.09C238.54 129.22 237.97 127.6 237.97 126.5C237.97 125.4 240.36 121.58 243.29 118C246.22 114.42 251.09 106.78 254.13 101C257.16 95.22 262.84 86 266.75 80.5C270.67 75 275.36 69.09 277.18 67.37C279.01 65.65 281.85 63.78 283.5 63.2C285.15 62.63 286.95 62.13 287.5 62.09ZM347 100.31C349.48 100.49 352.85 101.32 354.5 102.16C356.15 103 361.55 105.83 366.5 108.45C371.45 111.07 377.89 115.08 380.82 117.36C383.74 119.64 388.69 123.45 391.82 125.84C394.94 128.23 397.89 130.93 398.37 131.84C398.85 132.75 398.92 135.07 398.52 137C398.12 138.93 396.97 143.2 395.97 146.5C394.96 149.8 391.8 156.1 388.93 160.5C386.07 164.9 382 171.2 379.89 174.5C377.78 177.8 373.22 184.27 369.77 188.88C366.32 193.49 361.7 198.65 359.5 200.34C357.3 202.04 353.48 205.14 351 207.25C348.52 209.35 345.71 211.05 344.75 211.03C343.2 211 343.04 210.07 343.37 202.75C343.57 198.21 344.31 192.03 345.03 189C345.74 185.97 346.05 182.38 345.72 181C345.27 179.16 343.06 177.38 337.31 174.26C333.01 171.92 329.15 170.35 328.72 170.76C328.29 171.17 327.96 170.94 327.97 170.25C327.99 169.56 323.45 167.09 317.88 164.75C310.95 161.84 307.41 159.78 306.63 158.22C305.78 156.5 305.8 155.02 306.72 152.22C307.39 150.17 310.65 144.34 313.97 139.25C317.29 134.16 319.99 129.89 319.98 129.75C319.97 129.61 323.47 123.65 327.76 116.5C333.85 106.36 336.33 103.11 339.03 101.74C341.25 100.62 344.12 100.1 347 100.31Z" />
		<path id="Path 2" class="shp0" d="M261.55 144C261.25 144.55 262.01 145.59 263.25 146.32C264.49 147.05 267.41 148.4 269.75 149.32C272.09 150.24 274.9 151 276 151C277.11 151 277.85 150.45 277.66 149.75C277.48 149.06 274.08 147.26 270.11 145.75C266.14 144.24 262.71 143 262.49 143C262.28 143 261.85 143.45 261.55 144Z" />
		<path id="Path 3" class="shp1" d="M397.5 151.48C396.12 152.86 394.74 153.66 394.43 153.25C394.11 152.84 394.11 153.29 394.43 154.25C394.74 155.21 394.55 156 394 156C393.45 156 393.07 156.34 393.16 156.75C393.25 157.16 392.94 158.4 392.47 159.5C392.01 160.6 390.27 163.75 388.62 166.5C386.96 169.25 385.34 171.72 385.03 172C384.71 172.28 381.71 176.55 378.36 181.5C375.01 186.45 371.25 192.53 370 195C368.75 197.47 364.81 204.22 361.25 210C357.69 215.78 352.48 223.88 349.68 228C346.88 232.13 341.08 240.68 336.78 247C332.49 253.32 328.98 259.29 328.99 260.25C328.99 261.21 330.91 263.4 333.25 265.12C335.59 266.83 343.35 271.05 350.5 274.48C357.65 277.92 366.65 282.21 370.5 284.01L377.5 287.3C382.93 284.1 388.35 279.2 393.05 274.34C397.75 269.48 404.03 261.9 407.01 257.5C409.98 253.1 414.7 246.8 417.49 243.5C420.28 240.2 425.14 234.13 428.29 230C431.44 225.88 435.1 221.15 436.42 219.5C437.73 217.85 441.25 212 444.23 206.5C447.22 201 450.18 195.04 450.83 193.25C451.62 191.05 451.69 189.11 451.05 187.25C450.52 185.73 446.16 181.16 441.3 177.03C436.46 172.92 432 169.09 431.39 168.53C430.78 167.96 428.76 166.13 426.89 164.46C425.03 162.78 420.8 159.58 417.5 157.35C414.2 155.12 410.15 152.61 408.5 151.78C406.85 150.96 404.26 149.98 402.75 149.62C400.59 149.1 399.45 149.5 397.5 151.48ZM312 231.46C303.48 233.24 295.38 235.03 294 235.43C292.63 235.84 288 237.82 283.72 239.84C278.32 242.38 275.95 244.04 275.97 245.25C275.99 246.21 277.24 248.01 278.75 249.25C280.26 250.49 283.07 252.14 285 252.91C286.93 253.68 292.26 256.6 296.85 259.41C304.92 264.32 305.3 264.45 307.85 262.96C309.31 262.11 311.77 259.63 313.31 257.46C314.86 255.28 317.56 251.26 319.31 248.52C321.07 245.78 323.44 243.08 324.59 242.52C325.73 241.96 327.49 240.82 328.49 240C329.5 239.18 331.11 236.7 332.07 234.5C333.03 232.3 333.64 229.94 333.41 229.25C333.19 228.56 331.76 228.05 330.25 228.11C328.74 228.17 320.52 229.68 312 231.46Z" />
		<path id="Path 4" class="shp0" d="M440.87 300.71C439.57 301.6 435.35 304.84 431.5 307.91C427.65 310.98 424.27 313.78 424 314.12C423.73 314.47 421.93 315.7 420 316.87C418.07 318.04 415.15 319 413.5 319.01C411.65 319.02 409.16 317.92 407 316.13C405.07 314.54 402.94 313.52 402.25 313.87C401.43 314.28 403.35 316.69 407.75 320.79C411.46 324.25 414.84 327.06 415.25 327.04C415.66 327.02 416.45 326.1 417 325C417.55 323.9 420.4 321.31 423.33 319.25C426.26 317.19 432.34 312.01 436.83 307.75C441.32 303.49 444.6 299.79 444.12 299.54C443.64 299.29 442.17 299.81 440.87 300.71ZM358.41 380C358.84 381.47 357.87 383.12 354.7 386.25C352.34 388.59 347.05 392.83 342.95 395.68C338.85 398.53 333.25 401.86 330.5 403.06C327.75 404.27 325.27 405.43 325 405.65C324.73 405.86 324.95 406.46 325.5 406.97C326.05 407.49 331.15 408.04 336.84 408.2C342.52 408.37 347.56 408.95 348.03 409.5C348.49 410.05 348.96 412.3 349.06 414.5C349.15 416.7 349.85 420.52 350.61 423C351.37 425.48 352.67 432.23 353.49 438C354.32 443.77 355.45 455.48 355.99 464C356.54 472.52 357.44 481.64 357.99 484.25C358.55 486.86 359.45 489.23 360 489.5C360.66 489.83 361.01 477.91 361.02 454.75C361.04 422.47 361.18 419.4 362.77 418.28C363.72 417.61 366.75 415.95 369.5 414.59C372.25 413.23 375.51 410.97 376.75 409.56L379 407C375 404.29 372.27 402.15 370.35 400.5C368.44 398.85 366.23 395.7 365.46 393.5C364.68 391.3 363.13 386.91 362.02 383.75C360.91 380.59 359.51 378 358.91 378C358.28 378 358.07 378.86 358.41 380ZM359.37 507.25C359.75 512.34 360.28 516.61 360.53 516.75C360.79 516.89 361.45 516.77 362 516.5C362.55 516.23 363 513.52 363 510.5C363 507.48 362.32 503.43 361.5 501.5C360.68 499.57 359.7 498 359.34 498C358.98 498 358.99 502.16 359.37 507.25Z" />
	</g>
</svg>